<svg width="800" height="400" viewBox="0 0 800 400" xmlns="http://www.w3.org/2000/svg"><mask id="satori_om-id"><rect x="0" y="0" width="800" height="400" fill="#fff"/></mask><rect x="0" y="0" width="800" height="400" fill="#fff"/><clipPath id="satori_cp-id-0"><rect x="363" y="128" width="75" height="65"/></clipPath><mask id="satori_om-id-0"><rect x="363" y="128" width="75" height="65" fill="#fff"/></mask><image x="363" y="128" width="75" height="65" href="data:image/svg+xml;utf8,%3Csvg  fill=%22%23000%22 xmlns=%22http://www.w3.org/2000/svg%22 width=%22NaN%22 height=%22null%22 viewBox=%220 0 75 65%22%3E%3Cpath d=%22M37.59.25l36.95 64H.64l36.95-64z%22%3E%3C/path%3E%3C/svg%3E" preserveAspectRatio="none" clip-path="url(#satori_cp-id-0)" mask="url(#satori_om-id-0)"/><mask id="satori_om-id-0-0"><rect x="363" y="128" width="0" height="65" fill="#fff"/></mask><mask id="satori_om-id-1"><rect x="280" y="233" width="240" height="39" fill="#fff"/></mask><g  ><path fill="black" d="M288.3 244.8L281.1 244.8L281.1 240.7L300.3 240.7L300.3 244.8L293.1 244.8L293.1 264L288.3 264L288.3 244.8ZM304.3 270.5L304.3 270.5Q303.4 270.5 302.6 270.4Q301.8 270.3 301.3 270.0L301.3 270.0L302.4 266.4Q303.2 266.7 303.9 266.7Q304.6 266.7 305.1 266.4Q305.6 266.1 305.9 265.2L305.9 265.2L306.2 264.5L299.9 246.5L305.0 246.5L308.6 259.4L308.8 259.4L312.5 246.5L317.6 246.5L310.8 265.9Q310.3 267.3 309.5 268.3Q308.6 269.4 307.4 270.0Q306.1 270.5 304.3 270.5ZM324.9 270.5L320.1 270.5L320.1 246.5L324.8 246.5L324.8 249.5L325.1 249.5Q325.4 248.8 326.0 248.0Q326.6 247.3 327.6 246.8Q328.6 246.3 330.0 246.3L330.0 246.3Q331.9 246.3 333.5 247.3Q335.2 248.3 336.1 250.3Q337.1 252.3 337.1 255.3L337.1 255.3Q337.1 258.2 336.2 260.2Q335.2 262.2 333.6 263.3Q332 264.3 330.0 264.3L330.0 264.3Q328.6 264.3 327.6 263.8Q326.6 263.4 326.0 262.6Q325.4 261.9 325.1 261.2L325.1 261.2L324.9 261.2L324.9 270.5ZM324.8 255.3L324.8 255.3Q324.8 256.8 325.2 258.0Q325.7 259.1 326.5 259.8Q327.3 260.4 328.5 260.4L328.5 260.4Q329.7 260.4 330.5 259.8Q331.3 259.1 331.7 258.0Q332.1 256.8 332.1 255.3L332.1 255.3Q332.1 253.8 331.7 252.6Q331.3 251.5 330.5 250.8Q329.7 250.2 328.5 250.2L328.5 250.2Q327.3 250.2 326.5 250.8Q325.7 251.4 325.2 252.6Q324.8 253.7 324.8 255.3ZM345.3 264.3L345.3 264.3Q343.6 264.3 342.3 263.7Q341 263.2 340.2 262.0Q339.5 260.9 339.5 259.1L339.5 259.1Q339.5 257.7 340.0 256.7Q340.6 255.7 341.5 255.1Q342.4 254.5 343.6 254.2Q344.8 253.9 346.0 253.8L346.0 253.8Q347.6 253.6 348.5 253.4Q349.4 253.3 349.9 253.0Q350.3 252.7 350.3 252.2L350.3 252.2L350.3 252.1Q350.3 251.0 349.6 250.4Q348.9 249.9 347.7 249.9L347.7 249.9Q346.4 249.9 345.6 250.4Q344.8 251 344.6 251.9L344.6 251.9L340.1 251.5Q340.4 249.9 341.4 248.7Q342.4 247.6 344.0 246.9Q345.6 246.3 347.7 246.3L347.7 246.3Q349.2 246.3 350.5 246.7Q351.8 247 352.9 247.7Q353.9 248.4 354.5 249.6Q355.1 250.7 355.1 252.2L355.1 252.2L355.1 264L350.5 264L350.5 261.6L350.4 261.6Q350.0 262.4 349.3 263.0Q348.6 263.6 347.6 264.0Q346.6 264.3 345.3 264.3ZM346.7 261.0L346.7 261.0Q347.7 261.0 348.6 260.6Q349.4 260.1 349.8 259.4Q350.3 258.7 350.3 257.8L350.3 257.8L350.3 255.9Q350.1 256.1 349.7 256.2Q349.3 256.3 348.8 256.4Q348.3 256.5 347.8 256.6Q347.3 256.6 346.9 256.7L346.9 256.7Q346.1 256.8 345.5 257.1Q344.8 257.4 344.5 257.8Q344.1 258.3 344.1 259.0L344.1 259.0Q344.1 260.0 344.8 260.5Q345.6 261.0 346.7 261.0ZM366.8 264.3L366.8 264.3Q364.1 264.3 362.2 263.2Q360.2 262.1 359.2 260.0Q358.2 258.0 358.2 255.3L358.2 255.3Q358.2 252.7 359.2 250.6Q360.3 248.6 362.2 247.5Q364.1 246.3 366.7 246.3L366.7 246.3Q369.0 246.3 370.7 247.1Q372.5 248.0 373.5 249.5Q374.5 251.0 374.6 253L374.6 253L370.0 253Q369.8 251.7 369.0 250.9Q368.1 250.1 366.8 250.1L366.8 250.1Q365.7 250.1 364.9 250.7Q364.0 251.3 363.6 252.5Q363.1 253.6 363.1 255.3L363.1 255.3Q363.1 256.9 363.6 258.1Q364.0 259.3 364.9 259.9Q365.7 260.5 366.8 260.5L366.8 260.5Q367.6 260.5 368.3 260.2Q369.0 259.8 369.4 259.2Q369.9 258.5 370.0 257.6L370.0 257.6L374.6 257.6Q374.4 259.6 373.5 261.1Q372.5 262.6 370.8 263.5Q369.1 264.3 366.8 264.3ZM385.6 264.3L385.6 264.3Q382.9 264.3 381.0 263.2Q379.1 262.1 378.0 260.1Q377.0 258.1 377.0 255.4L377.0 255.4Q377.0 252.7 378.0 250.6Q379.1 248.6 381.0 247.5Q382.9 246.3 385.4 246.3L385.4 246.3Q387.2 246.3 388.7 246.9Q390.1 247.4 391.3 248.5Q392.4 249.6 393.0 251.3Q393.6 253.0 393.6 255.2L393.6 255.2L393.6 256.5L378.9 256.5L378.9 253.5L389.1 253.5Q389.1 252.5 388.6 251.7Q388.2 250.9 387.4 250.4Q386.6 249.9 385.5 249.9L385.5 249.9Q384.4 249.9 383.6 250.4Q382.7 250.9 382.2 251.8Q381.8 252.6 381.8 253.7L381.8 253.7L381.8 256.5Q381.8 257.8 382.2 258.8Q382.7 259.7 383.6 260.2Q384.5 260.7 385.7 260.7L385.7 260.7Q386.5 260.7 387.2 260.5Q387.9 260.3 388.3 259.8Q388.8 259.4 389.1 258.7L389.1 258.7L393.5 259Q393.2 260.6 392.1 261.8Q391.1 263.0 389.4 263.7Q387.8 264.3 385.6 264.3Z M406.3 240.7L411.2 240.7L411.2 264L406.3 264L406.3 240.7ZM420.0 253.9L420.0 253.9L420.0 264L415.2 264L415.2 246.5L419.8 246.5L419.8 249.6L420.0 249.6Q420.6 248.1 422.0 247.2Q423.3 246.3 425.3 246.3L425.3 246.3Q427.1 246.3 428.4 247.1Q429.8 247.9 430.5 249.4Q431.3 250.9 431.3 252.9L431.3 252.9L431.3 264L426.4 264L426.4 253.8Q426.5 252.1 425.6 251.2Q424.8 250.3 423.3 250.3L423.3 250.3Q422.4 250.3 421.6 250.8Q420.9 251.2 420.5 252.0Q420.0 252.8 420.0 253.9ZM442.7 255.3L439.5 259.0L439.5 253.2L440.2 253.2L445.8 246.5L451.3 246.5L443.8 255.3L442.7 255.3ZM439.9 264L435.1 264L435.1 240.7L439.9 240.7L439.9 264ZM451.7 264L446.0 264L440.9 256.4L444.1 253.0L451.7 264ZM462.3 264L457.1 264L452.4 246.5L457.3 246.5L460 258.3L460.2 258.3L463.0 246.5L467.8 246.5L470.6 258.2L470.8 258.2L473.5 246.5L478.3 246.5L473.6 264L468.5 264L465.5 253.0L465.3 253.0L462.3 264ZM485.7 264L480.9 264L480.9 246.5L485.7 246.5L485.7 264ZM483.3 244.3L483.3 244.3Q482.3 244.3 481.5 243.6Q480.7 242.9 480.7 241.8L480.7 241.8Q480.7 240.8 481.5 240.1Q482.3 239.4 483.3 239.4L483.3 239.4Q484.4 239.4 485.2 240.1Q486.0 240.8 486.0 241.8L486.0 241.8Q486.0 242.9 485.2 243.6Q484.4 244.3 483.3 244.3ZM494.5 264L489.6 264L489.6 246.5L494.3 246.5L494.3 249.6L494.5 249.6Q495.0 248.0 496.1 247.1Q497.2 246.3 498.7 246.3L498.7 246.3Q499.0 246.3 499.5 246.3Q499.9 246.4 500.2 246.5L500.2 246.5L500.2 250.8Q499.9 250.7 499.3 250.6Q498.7 250.5 498.2 250.5L498.2 250.5Q497.1 250.5 496.3 251.0Q495.4 251.4 494.9 252.2Q494.5 253.1 494.5 254.1L494.5 254.1L494.5 264ZM509.8 264.3L509.8 264.3Q507.1 264.3 505.2 263.2Q503.3 262.1 502.2 260.1Q501.2 258.1 501.2 255.4L501.2 255.4Q501.2 252.7 502.2 250.6Q503.3 248.6 505.2 247.5Q507.1 246.3 509.6 246.3L509.6 246.3Q511.4 246.3 512.9 246.9Q514.4 247.4 515.5 248.5Q516.6 249.6 517.2 251.3Q517.8 253.0 517.8 255.2L517.8 255.2L517.8 256.5L503.1 256.5L503.1 253.5L513.3 253.5Q513.3 252.5 512.8 251.7Q512.4 250.9 511.6 250.4Q510.8 249.9 509.7 249.9L509.7 249.9Q508.6 249.9 507.8 250.4Q506.9 250.9 506.4 251.8Q506.0 252.6 506.0 253.7L506.0 253.7L506.0 256.5Q506.0 257.8 506.4 258.8Q506.9 259.7 507.8 260.2Q508.7 260.7 509.9 260.7L509.9 260.7Q510.7 260.7 511.4 260.5Q512.1 260.3 512.5 259.8Q513.0 259.4 513.3 258.7L513.3 258.7L517.7 259Q517.4 260.6 516.3 261.8Q515.3 263.0 513.6 263.7Q512.0 264.3 509.8 264.3Z "/></g></svg>